<svg id="logo_itv" data-name="logo itv" xmlns="http://www.w3.org/2000/svg" width="153.828" height="41.462" viewBox="0 0 153.828 41.462">
  <g id="Camada_1" data-name="Camada 1">
    <path id="Caminho_25249" data-name="Caminho 25249" d="M16.988,20.419V8.747L0,0V14.3a3.441,3.441,0,0,0,1.866,3.059l12.014,6.185a4.126,4.126,0,0,1,2.237,3.671V38.538A2.753,2.753,0,0,0,18.87,41.3H32.243A2.751,2.751,0,0,0,35,38.545V26.61a2.751,2.751,0,0,0-2.753-2.753H20.435a3.44,3.44,0,0,1-3.447-3.438" transform="translate(0 0.164)" fill="#007e7a"/>
    <path id="Caminho_25250" data-name="Caminho 25250" d="M43.3,8.737H17.05L0,0H29.281a5.159,5.159,0,0,1,2.353.566L43.766,6.785A1.036,1.036,0,0,1,43.3,8.737" transform="translate(0 0.175)" fill="#edb111"/>
    <path id="Retângulo_15113" data-name="Retângulo 15113" d="M0,0H1.943V10.648H0Z" transform="translate(54.994 0.173)" fill="#747678"/>
    <path id="Caminho_25251" data-name="Caminho 25251" d="M3.034,1.627H0V0H8.042V1.627H4.977v9.021H3.034Z" transform="translate(77.047 0.173)" fill="#747678"/>
    <path id="Retângulo_15114" data-name="Retângulo 15114" d="M0,0H1.943V10.648H0Z" transform="translate(86.338 0.173)" fill="#747678"/>
    <path id="Caminho_25252" data-name="Caminho 25252" d="M3.034,1.627H0V0H8.041V1.627H4.977v9.021H3.034Z" transform="translate(89.512 0.173)" fill="#747678"/>
    <path id="Caminho_25253" data-name="Caminho 25253" d="M3.033,1.627H0V0H8.041V1.627H4.976v9.021H3.033Z" transform="translate(108.33 0.173)" fill="#747678"/>
    <path id="Caminho_25254" data-name="Caminho 25254" d="M8.185,10.509a2.779,2.779,0,0,1-.443.174,5.72,5.72,0,0,1-.624.152c-.235.044-.5.081-.778.107s-.585.041-.9.041A6.492,6.492,0,0,1,3.16,10.6,4.74,4.74,0,0,1,1.45,9.519,4.693,4.693,0,0,1,.374,7.83,6.253,6.253,0,0,1,0,5.627,6.276,6.276,0,0,1,.431,3.269,5.023,5.023,0,0,1,1.624,1.5,5.213,5.213,0,0,1,3.426.386,6.51,6.51,0,0,1,5.688,0a8.588,8.588,0,0,1,.889.045A7.165,7.165,0,0,1,7.315.16a5.215,5.215,0,0,1,.572.153A2.771,2.771,0,0,1,8.28.474L7.852,2.023a5.149,5.149,0,0,0-2.085-.412,4.287,4.287,0,0,0-1.5.252,3.266,3.266,0,0,0-1.18.747,3.361,3.361,0,0,0-.775,1.227,4.854,4.854,0,0,0-.278,1.692,4.764,4.764,0,0,0,.251,1.586,3.349,3.349,0,0,0,.728,1.21A3.18,3.18,0,0,0,4.185,9.1a4.32,4.32,0,0,0,1.566.271c.2,0,.4-.01.593-.028s.389-.045.573-.08a5.086,5.086,0,0,0,.519-.124,3.166,3.166,0,0,0,.433-.162Z" transform="translate(70.871 15.317)" fill="#747678"/>
    <path id="Caminho_25255" data-name="Caminho 25255" d="M0,10.648V0H2.211L4.96,4.567q.257.43.5.869t.47.885q.227.447.439.9t.408.915h.031c-.031-.356-.058-.708-.08-1.063S6.688,6.364,6.675,6s-.024-.731-.03-1.111-.009-.771-.009-1.178V0H8.43V10.648h-2L3.648,5.978q-.265-.447-.517-.9t-.491-.915Q2.4,3.7,2.176,3.232t-.439-.942l-.047.016c.02.344.036.689.049,1.042s.022.712.029,1.083.011.754.014,1.154,0,.817,0,1.255v3.807Z" transform="translate(80.715 15.494)" fill="#747678"/>
    <path id="Caminho_25256" data-name="Caminho 25256" d="M2.051,5.546a5.611,5.611,0,0,0,.2,1.52A3.926,3.926,0,0,0,2.83,8.3a2.751,2.751,0,0,0,.928.829,2.609,2.609,0,0,0,1.248.3,2.57,2.57,0,0,0,1.245-.306,2.733,2.733,0,0,0,.923-.841,4.017,4.017,0,0,0,.574-1.259,5.941,5.941,0,0,0,.2-1.56,5.631,5.631,0,0,0-.186-1.456A4.131,4.131,0,0,0,7.2,2.762a2.789,2.789,0,0,0-.919-.871,2.544,2.544,0,0,0-1.279-.328,2.628,2.628,0,0,0-1.281.313,2.7,2.7,0,0,0-.924.854A4.044,4.044,0,0,0,2.24,4a6.12,6.12,0,0,0-.188,1.549M10,5.387A7.032,7.032,0,0,1,9.616,7.77,4.966,4.966,0,0,1,8.551,9.53a4.547,4.547,0,0,1-1.616,1.091,5.458,5.458,0,0,1-2.037.374,5.016,5.016,0,0,1-2.032-.407,4.412,4.412,0,0,1-1.543-1.13,5.067,5.067,0,0,1-.98-1.716A6.666,6.666,0,0,1,0,5.577,6.731,6.731,0,0,1,.367,3.326,5.219,5.219,0,0,1,1.4,1.562,4.626,4.626,0,0,1,3,.412,5.125,5.125,0,0,1,5.055,0,5.14,5.14,0,0,1,7.139.415,4.421,4.421,0,0,1,8.693,1.556a5.055,5.055,0,0,1,.971,1.71A6.57,6.57,0,0,1,10,5.387" transform="translate(90.842 15.32)" fill="#747678"/>
    <path id="Caminho_25257" data-name="Caminho 25257" d="M3.033,1.627H0V0H8.041V1.627H4.975v9.021H3.033Z" transform="translate(53.998 15.494)" fill="#747678"/>
    <path id="Caminho_25258" data-name="Caminho 25258" d="M5.955,5.925H1.942V9.052H6.429v1.6H0V0H6.192V1.6H1.942V4.345H5.955Z" transform="translate(63.289 15.494)" fill="#747678"/>
    <path id="Caminho_25259" data-name="Caminho 25259" d="M0,0H1.942V9.021H6.318v1.627H0Z" transform="translate(102.518 15.494)" fill="#747678"/>
    <path id="Caminho_25260" data-name="Caminho 25260" d="M7.552,0,5.577,1.9H4.013L5.4,0Zm-5.5,7.867a5.614,5.614,0,0,0,.2,1.52,3.918,3.918,0,0,0,.579,1.234,2.751,2.751,0,0,0,.93.829,2.625,2.625,0,0,0,1.252.3,2.578,2.578,0,0,0,1.249-.306,2.72,2.72,0,0,0,.922-.841,4.012,4.012,0,0,0,.571-1.259,5.979,5.979,0,0,0,.2-1.56,5.637,5.637,0,0,0-.186-1.456,4.13,4.13,0,0,0-.555-1.247,2.786,2.786,0,0,0-.919-.871,2.543,2.543,0,0,0-1.279-.328A2.634,2.634,0,0,0,3.733,4.2a2.711,2.711,0,0,0-.927.854,4.042,4.042,0,0,0-.563,1.266,6.085,6.085,0,0,0-.19,1.549M10,7.709a7.035,7.035,0,0,1-.384,2.382,4.964,4.964,0,0,1-1.065,1.76,4.545,4.545,0,0,1-1.616,1.091,5.46,5.46,0,0,1-2.037.374,5.015,5.015,0,0,1-2.031-.407,4.411,4.411,0,0,1-1.543-1.13,5.068,5.068,0,0,1-.98-1.716A6.671,6.671,0,0,1,0,7.9,6.731,6.731,0,0,1,.368,5.648,5.221,5.221,0,0,1,1.4,3.884,4.626,4.626,0,0,1,3,2.733a5.125,5.125,0,0,1,2.056-.412,5.138,5.138,0,0,1,2.084.415A4.419,4.419,0,0,1,8.694,3.878a5.055,5.055,0,0,1,.971,1.71A6.575,6.575,0,0,1,10,7.709" transform="translate(109.137 12.998)" fill="#747678"/>
    <path id="Caminho_25261" data-name="Caminho 25261" d="M9.079,10.268q-.413.146-.836.257t-.853.186q-.43.075-.865.115t-.873.043a8.758,8.758,0,0,1-1.269-.087,6.263,6.263,0,0,1-1.112-.263,4.989,4.989,0,0,1-.964-.444,4.67,4.67,0,0,1-.824-.629,4.258,4.258,0,0,1-.635-.765,4.887,4.887,0,0,1-.469-.927,5.629,5.629,0,0,1-.288-1.06A6.427,6.427,0,0,1,0,5.529,5.937,5.937,0,0,1,.43,3.245,4.921,4.921,0,0,1,1.641,1.5,5.387,5.387,0,0,1,3.512.391,7.206,7.206,0,0,1,5.923,0c.328,0,.638.017.927.046s.555.07.8.118a6.225,6.225,0,0,1,.642.162A3.471,3.471,0,0,1,8.752.5L8.325,2.069A5.731,5.731,0,0,0,5.9,1.611a4.722,4.722,0,0,0-1.564.249,3.405,3.405,0,0,0-1.224.733,3.259,3.259,0,0,0-.8,1.2,4.5,4.5,0,0,0-.285,1.644A4.706,4.706,0,0,0,2.3,7.056a3.357,3.357,0,0,0,.752,1.21,3.239,3.239,0,0,0,1.168.757,4.238,4.238,0,0,0,1.515.262c.174,0,.337-.006.488-.017s.289-.027.414-.047a2.939,2.939,0,0,0,.33-.07A1.355,1.355,0,0,0,7.2,9.062V6.413H5.324V4.881h3.76Z" transform="translate(120.262 15.384)" fill="#747678"/>
    <path id="Retângulo_15115" data-name="Retângulo 15115" d="M0,0H1.943V10.648H0Z" transform="translate(131.33 15.494)" fill="#747678"/>
    <path id="Caminho_25262" data-name="Caminho 25262" d="M8.183,10.509a2.777,2.777,0,0,1-.443.174,5.713,5.713,0,0,1-.623.152c-.235.044-.5.081-.777.107s-.585.041-.9.041A6.491,6.491,0,0,1,3.159,10.6,4.741,4.741,0,0,1,1.45,9.519,4.693,4.693,0,0,1,.374,7.83,6.253,6.253,0,0,1,0,5.627,6.279,6.279,0,0,1,.431,3.269,5.023,5.023,0,0,1,1.623,1.5,5.211,5.211,0,0,1,3.425.386,6.509,6.509,0,0,1,5.686,0a8.587,8.587,0,0,1,.889.045A7.167,7.167,0,0,1,7.313.16a5.211,5.211,0,0,1,.572.153,2.769,2.769,0,0,1,.392.161L7.851,2.023a5.159,5.159,0,0,0-2.085-.412,4.29,4.29,0,0,0-1.5.252,3.265,3.265,0,0,0-1.18.747,3.359,3.359,0,0,0-.774,1.227,4.856,4.856,0,0,0-.278,1.692,4.766,4.766,0,0,0,.251,1.586,3.346,3.346,0,0,0,.728,1.21A3.179,3.179,0,0,0,4.184,9.1a4.322,4.322,0,0,0,1.566.271c.2,0,.4-.01.593-.028s.388-.045.572-.08a5.091,5.091,0,0,0,.519-.124,3.168,3.168,0,0,0,.433-.162Z" transform="translate(134.951 15.317)" fill="#747678"/>
    <path id="Caminho_25263" data-name="Caminho 25263" d="M2.053,5.546a5.612,5.612,0,0,0,.2,1.52A3.919,3.919,0,0,0,2.832,8.3a2.752,2.752,0,0,0,.93.829,2.625,2.625,0,0,0,1.252.3,2.578,2.578,0,0,0,1.249-.306,2.72,2.72,0,0,0,.922-.841,4.012,4.012,0,0,0,.571-1.259,5.979,5.979,0,0,0,.2-1.56,5.637,5.637,0,0,0-.186-1.456,4.133,4.133,0,0,0-.554-1.247,2.786,2.786,0,0,0-.919-.871,2.542,2.542,0,0,0-1.279-.328,2.635,2.635,0,0,0-1.282.313,2.711,2.711,0,0,0-.927.854A4.04,4.04,0,0,0,2.242,4a6.086,6.086,0,0,0-.19,1.549M10,5.387A7.032,7.032,0,0,1,9.615,7.77,4.966,4.966,0,0,1,8.549,9.53a4.547,4.547,0,0,1-1.616,1.091,5.458,5.458,0,0,1-2.037.374,5.015,5.015,0,0,1-2.031-.407,4.411,4.411,0,0,1-1.543-1.13,5.068,5.068,0,0,1-.98-1.716A6.671,6.671,0,0,1,0,5.577,6.731,6.731,0,0,1,.367,3.326,5.22,5.22,0,0,1,1.4,1.562,4.626,4.626,0,0,1,3,.412,5.125,5.125,0,0,1,5.054,0,5.138,5.138,0,0,1,7.139.415,4.419,4.419,0,0,1,8.693,1.556a5.055,5.055,0,0,1,.971,1.71A6.575,6.575,0,0,1,10,5.387" transform="translate(143.828 15.32)" fill="#747678"/>
    <path id="Caminho_25264" data-name="Caminho 25264" d="M3.444,10.648,0,0H2.117L3.569,4.835c.1.336.2.666.3.992s.185.649.272.969.169.64.247.96.152.641.222.964h.033q.107-.474.23-.953t.261-.962q.138-.482.288-.967t.31-.969L7.276,0H9.349L5.671,10.648Z" transform="translate(53.982 30.814)" fill="#747678"/>
    <path id="Caminho_25265" data-name="Caminho 25265" d="M5.97,6.162,5.138,3.541c-.051-.162-.1-.329-.149-.5S4.9,2.7,4.851,2.534s-.087-.339-.129-.5S4.64,1.7,4.6,1.55H4.569c-.04.154-.079.316-.119.482s-.08.336-.122.507-.084.342-.128.51-.09.333-.137.491l-.82,2.622ZM2.916,7.631l-.911,3.018H0L3.405,0h2.48L9.352,10.648H7.266L6.3,7.631Z" transform="translate(62.832 30.814)" fill="#747678"/>
    <path id="Caminho_25266" data-name="Caminho 25266" d="M0,0H1.944V9.021H6.32v1.627H0Z" transform="translate(73.668 30.814)" fill="#747678"/>
    <path id="Caminho_25267" data-name="Caminho 25267" d="M5.956,5.925H1.943V9.054H6.43v1.595H0V0H6.193V1.6H1.943V4.345H5.956Z" transform="translate(81.457 30.814)" fill="#747678"/>
    <path id="Caminho_25268" data-name="Caminho 25268" d="M0,10.648V0H2.213L4.956,4.565q.258.43.5.869t.47.885q.227.447.439.9t.408.916h.033c-.032-.356-.059-.708-.081-1.063S6.684,6.362,6.67,6s-.024-.731-.03-1.111-.009-.771-.009-1.178V0h1.8V10.648H6.437L3.651,5.972q-.265-.446-.516-.9t-.491-.914Q2.4,3.7,2.179,3.231t-.439-.94l-.047.016c.02.344.035.689.048,1.042s.022.712.029,1.083.011.754.014,1.154,0,.817,0,1.255v3.807Z" transform="translate(59.164 0.173)" fill="#747678"/>
    <path id="Caminho_25269" data-name="Caminho 25269" d="M.432,8.7a5.362,5.362,0,0,0,2.575.68,3.041,3.041,0,0,0,.83-.1,1.789,1.789,0,0,0,.609-.3,1.271,1.271,0,0,0,.376-.459,1.343,1.343,0,0,0-.31-1.6,2.735,2.735,0,0,0-.588-.4,7.215,7.215,0,0,0-.869-.374,7.664,7.664,0,0,1-1.19-.535,4.176,4.176,0,0,1-.906-.676A2.681,2.681,0,0,1,.381,4.1a2.639,2.639,0,0,1-.2-1.041A2.794,2.794,0,0,1,1.192.882,3.55,3.55,0,0,1,2.375.235,4.965,4.965,0,0,1,3.934,0a7.244,7.244,0,0,1,.809.044,6.1,6.1,0,0,1,.7.118,5.064,5.064,0,0,1,.583.171,4.041,4.041,0,0,1,.471.2L6.019,2.1A4.5,4.5,0,0,0,3.9,1.6a2.6,2.6,0,0,0-.8.113,1.61,1.61,0,0,0-.55.3,1.2,1.2,0,0,0-.319.411,1.086,1.086,0,0,0-.1.46,1.184,1.184,0,0,0,.118.542,1.32,1.32,0,0,0,.367.435,3.4,3.4,0,0,0,.634.385c.258.126.563.254.918.392A7.225,7.225,0,0,1,5.38,5.2a3.727,3.727,0,0,1,.858.695,2.591,2.591,0,0,1,.512.852,3.209,3.209,0,0,1-.076,2.26,2.857,2.857,0,0,1-.746,1.017,3.581,3.581,0,0,1-1.261.7,5.766,5.766,0,0,1-1.791.259,6.7,6.7,0,0,1-.84-.055,7.334,7.334,0,0,1-.8-.147,6.1,6.1,0,0,1-.7-.212A3.421,3.421,0,0,1,0,10.317Z" transform="translate(69.367)" fill="#747678"/>
    <path id="Caminho_25270" data-name="Caminho 25270" d="M1.944,0V6.209A5.3,5.3,0,0,0,2.1,7.565a2.7,2.7,0,0,0,.442.95,1.813,1.813,0,0,0,.688.559,2.11,2.11,0,0,0,.893.183,2.3,2.3,0,0,0,.944-.183,1.8,1.8,0,0,0,.705-.559,2.642,2.642,0,0,0,.441-.95,5.384,5.384,0,0,0,.153-1.356V0H8.31V6.083a6.761,6.761,0,0,1-.3,2.127,3.842,3.842,0,0,1-.861,1.475,3.463,3.463,0,0,1-1.341.859,5.12,5.12,0,0,1-1.744.278,4.87,4.87,0,0,1-1.674-.267,3.226,3.226,0,0,1-1.28-.839A3.784,3.784,0,0,1,.289,8.249,7.211,7.211,0,0,1,0,6.1V0Z" transform="translate(98.787 0.173)" fill="#747678"/>
    <path id="Caminho_25271" data-name="Caminho 25271" d="M2.054,5.546a5.619,5.619,0,0,0,.2,1.52A3.927,3.927,0,0,0,2.832,8.3a2.749,2.749,0,0,0,.928.829,2.61,2.61,0,0,0,1.248.3,2.575,2.575,0,0,0,1.245-.305,2.723,2.723,0,0,0,.923-.839,4.01,4.01,0,0,0,.573-1.258,5.964,5.964,0,0,0,.2-1.562A5.637,5.637,0,0,0,7.76,4.009a4.133,4.133,0,0,0-.555-1.247,2.786,2.786,0,0,0-.919-.871,2.543,2.543,0,0,0-1.279-.328,2.628,2.628,0,0,0-1.281.313,2.7,2.7,0,0,0-.924.854A4.042,4.042,0,0,0,2.242,4a6.117,6.117,0,0,0-.188,1.549M10,5.387A7.032,7.032,0,0,1,9.615,7.77,4.965,4.965,0,0,1,8.55,9.53a4.547,4.547,0,0,1-1.616,1.091,5.458,5.458,0,0,1-2.037.374,5.015,5.015,0,0,1-2.031-.407,4.41,4.41,0,0,1-1.543-1.13,5.067,5.067,0,0,1-.98-1.716A6.669,6.669,0,0,1,0,5.577,6.732,6.732,0,0,1,.368,3.326,5.219,5.219,0,0,1,1.4,1.562,4.627,4.627,0,0,1,3,.412,5.125,5.125,0,0,1,5.055,0,5.138,5.138,0,0,1,7.14.415,4.419,4.419,0,0,1,8.694,1.556a5.056,5.056,0,0,1,.971,1.71A6.575,6.575,0,0,1,10,5.387" transform="translate(116.625)" fill="#747678"/>
  </g>
</svg>
